<svg width="36" height="36" viewBox="0 0 36 36" fill="none" xmlns="http://www.w3.org/2000/svg">
<rect width="36" height="36" rx="18" fill="#D2D9D2"/>
<g clip-path="url(#clip0_25_7003)">
<path d="M17.6036 9.89535C15.3957 10.1012 13.7854 11.773 13.5039 12.0733C13.4001 12.1847 11.6845 14.0624 11.7224 15.844C11.7273 16.0452 11.7619 16.635 11.6038 17.4074C11.5413 17.7108 11.454 18.1226 11.2169 18.6086C10.9568 19.1457 10.8053 19.172 10.2669 20.0188C9.931 20.5451 9.76305 20.8144 9.70213 21.1224C9.58194 21.74 9.79434 22.2509 9.86514 22.4072C10.1928 23.1177 10.83 23.4567 11.3947 23.7477C11.6516 23.8793 12.1192 24.096 13.6224 24.404C14.4539 24.5743 15.1092 24.709 16.0131 24.7956C18.2491 25.0093 19.9812 24.7368 21.3675 24.5093C22.8625 24.2632 23.5178 24.0248 23.8241 23.9025C24.7724 23.5279 25.8608 23.0976 26.2148 22.1146C26.4519 21.4568 26.2609 20.8237 26.2444 20.7741C26.0946 20.3036 25.8591 20.1983 25.4426 19.4754C25.3257 19.2727 25.0787 18.8392 24.9223 18.3439C24.728 17.7263 24.8334 17.5111 24.7889 16.3332C24.7527 15.3734 24.7329 14.8518 24.537 14.211C24.3164 13.4927 23.9871 12.9958 23.8092 12.7311C23.6067 12.4293 22.7176 11.1615 20.9723 10.386C20.4093 10.1353 19.9087 10.0579 19.6502 10.0083C19.6008 9.99906 18.5619 9.80712 17.6003 9.8969L17.6036 9.89535Z" fill="#FFF7E2"/>
<path d="M16.9909 9.98226C16.2917 10.113 14.9999 10.4511 13.5032 12.0537C13.4101 12.1526 11.6831 14.0406 11.7204 15.8298C11.7255 16.0307 11.7593 16.6224 11.6019 17.3958C11.5392 17.6987 11.4512 18.1117 11.2158 18.5981C10.9551 19.1355 10.8044 19.1626 10.266 20.011C9.93079 20.5372 9.76149 20.8067 9.70223 21.116C9.58202 21.7348 9.79365 22.2466 9.86476 22.4029C10.1915 23.1141 10.8281 23.4538 11.3936 23.7456C11.651 23.8779 12.1183 24.0948 13.6217 24.4026C14.453 24.5732 15.1082 24.7072 16.0123 24.7949C18.2489 25.0085 19.9809 24.7359 21.3676 24.5078C22.8626 24.2623 23.5178 24.0215 23.8242 23.9003C24.774 23.5239 25.861 23.0934 26.2149 22.1095C26.4519 21.4493 26.2606 20.8162 26.2453 20.7668C26.0963 20.2964 25.8593 20.1896 25.4428 19.4656C25.326 19.2631 25.0788 18.8277 24.923 18.3334C24.7283 17.7147 24.8333 17.4994 24.7893 16.3194C24.7537 15.3594 24.7334 14.8364 24.537 14.1937C24.3169 13.4745 23.9868 12.9754 23.809 12.7107C23.6075 12.4093 22.7169 11.1384 20.9731 10.3602C20.3771 10.0955 20.0791 9.96315 19.6508 9.98229C18.3132 10.0445 17.4752 11.4844 17.3482 11.7029C16.5795 13.0249 16.8216 14.4489 16.9909 15.4519C17.1078 16.1376 17.2923 16.6893 17.4362 17.0609" stroke="#3A643B" stroke-width="0.7" stroke-miterlimit="10" stroke-linecap="round"/>
<path d="M16.8845 14.1289C17.1683 14.2135 18.0253 14.5086 18.5637 15.3733C19.1879 16.376 19.1268 17.7391 18.4138 18.8501C18.0239 18.7714 17.4564 18.5935 16.9049 18.1663C16.5892 17.9215 16.1657 17.5938 15.9417 16.9797C15.703 16.3286 15.8354 15.756 15.8762 15.5869C16.0886 14.7178 16.7099 14.252 16.8845 14.1289Z" stroke="#3A643B" stroke-width="0.7" stroke-miterlimit="10"/>
<path d="M18.834 25.9342C19.3289 26.2638 20.1135 26.406 20.8325 26.2974C21.5065 26.1951 22.0203 25.8882 22.1673 25.5" stroke="#3A643B" stroke-width="0.7" stroke-miterlimit="10" stroke-linecap="round"/>
</g>
<defs>
<clipPath id="clip0_25_7003">
<rect width="20" height="20" fill="white" transform="translate(8 8)"/>
</clipPath>
</defs>
</svg>
