<svg width="36" height="36" viewBox="0 0 36 36" fill="none" xmlns="http://www.w3.org/2000/svg">
<rect width="36" height="36" rx="18" fill="#D2D9D2"/>
<path d="M16.7471 8.18164C16.8352 8.19232 16.9076 8.24691 16.9473 8.32129L16.9756 8.40137V8.4043C16.9756 8.40356 17.0378 8.71064 17.2373 9.05664C17.5011 9.51164 17.8686 9.81495 18.3291 9.96191C18.6806 10.0737 18.9834 10.2812 19.2275 10.5742C19.4426 10.8326 19.6079 11.1502 19.7207 11.5186V11.5195C19.9149 12.1551 19.9401 12.915 19.7891 13.5557C19.7654 13.6555 19.6885 13.7373 19.585 13.7598L19.5811 13.7607C19.5789 13.7612 19.5581 13.765 19.5312 13.7695C19.5009 13.7746 19.4583 13.7817 19.4053 13.7881C19.299 13.8008 19.1499 13.8125 18.9727 13.8125C18.8417 13.8125 18.6948 13.8062 18.5381 13.7881C18.28 13.7578 18.0335 13.7012 17.8027 13.6182L17.5771 13.5264C17.2066 13.3568 16.8841 13.1141 16.6201 12.8047C16.3726 12.515 16.1837 12.1794 16.0605 11.8076C15.9369 11.4383 15.885 11.0529 15.9043 10.6611C15.9294 10.1422 16.0491 9.32047 16.4746 8.34082C16.5209 8.23452 16.629 8.16825 16.7461 8.18262L16.7471 8.18164ZM16.7139 9.20898C16.5153 9.82573 16.4494 10.3379 16.4326 10.6895C16.4012 11.3334 16.6141 11.9711 17.0137 12.4385C17.3997 12.8895 17.928 13.1605 18.5869 13.2402C18.8876 13.2769 19.1482 13.2608 19.3096 13.2432C19.3932 12.7413 19.3611 12.1589 19.2158 11.6836C19.079 11.234 18.787 10.6805 18.1738 10.4854C17.8461 10.381 17.5515 10.2114 17.2979 9.98145C17.0962 9.79846 16.9203 9.57765 16.7764 9.3252C16.7538 9.28603 16.7335 9.247 16.7139 9.20898Z" fill="#3C653D" stroke="#3C653D" stroke-width="0.2"/>
<path d="M22.0352 6.90332C22.1531 6.8883 22.2613 6.95611 22.3076 7.06152C22.5878 7.70597 22.667 8.24757 22.6836 8.59082C22.6959 8.85552 22.6612 9.11574 22.5781 9.36523C22.4945 9.61635 22.3674 9.8431 22.2002 10.04V10.041C21.919 10.3694 21.5399 10.5856 21.0986 10.6758L20.9053 10.7061C20.8001 10.7178 20.7027 10.7226 20.6152 10.7227C20.3915 10.7227 20.2322 10.6928 20.2002 10.6855V10.6865L20.1992 10.6855C20.1978 10.6852 20.1961 10.6858 20.1953 10.6855V10.6846C20.0967 10.6609 20.0197 10.5832 19.9961 10.4824C19.8953 10.0525 19.9129 9.54397 20.042 9.11816L20.1055 8.9375C20.176 8.76287 20.2665 8.60715 20.377 8.47461C20.5457 8.2721 20.7554 8.12842 21 8.05078C21.3295 7.94551 21.531 7.71748 21.6514 7.50977C21.7114 7.40606 21.7503 7.3081 21.7744 7.23633C21.7864 7.20067 21.7946 7.17143 21.7998 7.15137C21.8023 7.14158 21.8045 7.13405 21.8057 7.12891C21.8063 7.12589 21.8064 7.12334 21.8066 7.12207C21.8279 7.00826 21.918 6.91663 22.0352 6.90234V6.90332ZM22.0361 7.89844C21.8173 8.226 21.5163 8.46093 21.1553 8.57617C20.8021 8.68881 20.6298 9.01243 20.5469 9.28418C20.4656 9.55174 20.444 9.87573 20.4805 10.165C20.5783 10.1716 20.7089 10.176 20.8545 10.1582C21.2553 10.1092 21.5721 9.94515 21.8037 9.6748C22.0441 9.39322 22.1743 9.00892 22.1553 8.61914C22.1465 8.43991 22.1148 8.19386 22.0361 7.89844Z" fill="#3C653D" stroke="#3C653D" stroke-width="0.2"/>
<path d="M21.4195 23.4694H14.922L13.1328 14.9023H25.1149C26.0995 14.9023 26.5917 14.9023 26.8486 15.2586C27.1054 15.6149 26.9986 16.1496 26.785 17.2191C26.0445 20.9271 25.434 23.4694 21.4195 23.4694Z" fill="#FFF7E2"/>
<path d="M14.922 23.4694H21.4195C25.434 23.4694 26.0445 20.9271 26.785 17.2191C26.9986 16.1496 27.1054 15.6149 26.8486 15.2586C26.5917 14.9023 26.0995 14.9023 25.1149 14.9023H13.1328" stroke="#3C653D" stroke-width="0.7" stroke-linecap="round"/>
<path d="M14.9202 23.4728L12.5752 12.2138C12.3761 11.4109 11.6605 10.8477 10.8395 10.8477H10" stroke="#3C653D" stroke-width="0.7" stroke-linecap="round"/>
<path d="M15.7092 23.4707H15.3411C14.1215 23.4707 13.1328 24.5089 13.1328 25.7896C13.1328 26.003 13.2976 26.1761 13.5009 26.1761H23.4205" stroke="#3C653D" stroke-width="0.7" stroke-linecap="round" stroke-linejoin="round"/>
<path d="M17.1583 28.8812C17.8994 28.8812 18.5001 28.2755 18.5001 27.5285C18.5001 26.7814 17.8994 26.1758 17.1583 26.1758C16.4172 26.1758 15.8164 26.7814 15.8164 27.5285C15.8164 28.2755 16.4172 28.8812 17.1583 28.8812Z" stroke="#3C653D" stroke-width="0.7"/>
<path d="M23.4161 28.8812C24.1572 28.8812 24.758 28.2755 24.758 27.5285C24.758 26.7814 24.1572 26.1758 23.4161 26.1758C22.675 26.1758 22.0742 26.7814 22.0742 27.5285C22.0742 28.2755 22.675 28.8812 23.4161 28.8812Z" stroke="#3C653D" stroke-width="0.7"/>
</svg>
