<svg width="16" height="16" viewBox="0 0 16 16" fill="none" xmlns="http://www.w3.org/2000/svg">
<g clip-path="url(#clip0_25_6402)">
<path d="M6.99968 13.6673L13.6663 7.00065C13.9779 6.69537 14.2258 6.33136 14.3957 5.92967C14.5657 5.52798 14.6543 5.09658 14.6565 4.66042C14.6587 4.22426 14.5745 3.79198 14.4086 3.3886C14.2427 2.98521 13.9985 2.61871 13.69 2.3103C13.3816 2.00188 13.0151 1.75766 12.6117 1.59177C12.2083 1.42587 11.7761 1.34159 11.3399 1.34379C10.9038 1.34599 10.4724 1.43464 10.0707 1.6046C9.66897 1.77456 9.30496 2.02247 8.99968 2.33399L2.33301 9.00065C2.02149 9.30594 1.77359 9.66995 1.60363 10.0716C1.43366 10.4733 1.34502 10.9047 1.34282 11.3409C1.34061 11.7771 1.4249 12.2093 1.59079 12.6127C1.75669 13.0161 2.0009 13.3826 2.30932 13.691C2.61774 13.9994 2.98424 14.2436 3.38762 14.4095C3.79101 14.5754 4.22328 14.6597 4.65944 14.6575C5.0956 14.6553 5.527 14.5667 5.92869 14.3967C6.33038 14.2267 6.69439 13.9788 6.99968 13.6673Z" stroke="#3A643B" stroke-width="1.33333" stroke-linecap="round" stroke-linejoin="round"/>
<path d="M5.66602 5.66797L10.3327 10.3346" stroke="#3A643B" stroke-width="1.33333" stroke-linecap="round" stroke-linejoin="round"/>
</g>
<defs>
<clipPath id="clip0_25_6402">
<rect width="16" height="16" fill="white"/>
</clipPath>
</defs>
</svg>
