<svg width="36" height="36" viewBox="0 0 36 36" fill="none" xmlns="http://www.w3.org/2000/svg">
<rect width="36" height="36" rx="18" fill="#D2D9D2"/>
<circle cx="18" cy="13.5" r="3.15" stroke="#3A643B" stroke-width="0.7"/>
<path d="M26.4772 18.3431C26.4194 18.3299 26.362 18.3174 26.3051 18.3056C24.801 17.9925 23.5987 18.1281 22.6373 18.5411C21.6745 18.9548 20.9316 19.6557 20.3638 20.5056C19.2474 22.1768 18.8268 24.4004 18.7522 26.0195C18.7705 26.0456 18.7954 26.0805 18.8315 26.1224C18.9071 26.21 19.014 26.3165 19.152 26.4349C19.4277 26.6714 19.8175 26.9449 20.3119 27.2027C21.2991 27.7175 22.694 28.1644 24.4173 28.1341C25.9975 28.1063 27.1607 26.7878 28.0018 24.8624C28.7844 23.0707 29.2389 20.8575 29.4877 19.0194C29.0097 18.9135 28.0957 18.7125 26.4772 18.3431Z" fill="#FFF7E2" fill-opacity="0.886275" stroke="#3A643B" stroke-width="0.7" stroke-linecap="round"/>
<path d="M9.52278 18.3431C9.58057 18.3299 9.63796 18.3174 9.69491 18.3056C11.199 17.9925 12.4013 18.1281 13.3627 18.5411C14.3255 18.9548 15.0684 19.6557 15.6362 20.5056C16.7526 22.1768 17.1732 24.4004 17.2478 26.0195C17.2295 26.0456 17.2046 26.0805 17.1685 26.1224C17.0929 26.21 16.986 26.3165 16.848 26.4349C16.5723 26.6714 16.1825 26.9449 15.6881 27.2027C14.7009 27.7175 13.306 28.1644 11.5827 28.1341C10.0025 28.1063 8.83931 26.7878 7.99821 24.8624C7.21563 23.0707 6.76114 20.8575 6.51235 19.0194C6.99035 18.9135 7.90427 18.7125 9.52278 18.3431Z" fill="#FFF7E2" fill-opacity="0.886275" stroke="#3A643B" stroke-width="0.7" stroke-linecap="round"/>
</svg>
