<svg width="34" height="34" viewBox="0 0 34 34" fill="none" xmlns="http://www.w3.org/2000/svg">
<path d="M8.5 2.83203L4.25 8.4987V28.332C4.25 29.0835 4.54851 29.8041 5.07986 30.3355C5.61122 30.8669 6.33189 31.1654 7.08333 31.1654H26.9167C27.6681 31.1654 28.3888 30.8669 28.9201 30.3355C29.4515 29.8041 29.75 29.0835 29.75 28.332V8.4987L25.5 2.83203H8.5Z" stroke="black" stroke-width="1.25" stroke-linecap="round" stroke-linejoin="round"/>
<path d="M4.25 8.5H29.75" stroke="black" stroke-width="1.25" stroke-linecap="round" stroke-linejoin="round"/>
<path d="M22.6668 14.168C22.6668 15.6709 22.0698 17.1122 21.0071 18.1749C19.9444 19.2376 18.5031 19.8346 17.0002 19.8346C15.4973 19.8346 14.0559 19.2376 12.9932 18.1749C11.9305 17.1122 11.3335 15.6709 11.3335 14.168" stroke="black" stroke-width="1.25" stroke-linecap="round" stroke-linejoin="round"/>
</svg>
