<svg width="64" height="36" viewBox="0 0 64 36" fill="none" xmlns="http://www.w3.org/2000/svg">
<rect width="36" height="36" rx="18" fill="#D2D9D2"/>
<path d="M9 15.5801H20.1598C22.7902 15.5801 24.1054 15.5801 24.9226 16.3972C25.7398 17.2144 25.7398 18.5296 25.7398 21.16V22.09C25.7398 24.7204 25.7398 26.0355 24.9226 26.8527C24.1054 27.6699 22.7902 27.6699 20.1598 27.6699H14.5799C11.9495 27.6699 10.6343 27.6699 9.81716 26.8527C9 26.0355 9 24.7204 9 22.09V15.5801Z" fill="#FFF7E2"/>
<path d="M25.7398 22.09C25.7398 24.7204 25.7398 26.0355 24.9226 26.8527C24.1054 27.6699 22.7902 27.6699 20.1598 27.6699H14.5799C11.9495 27.6699 10.6343 27.6699 9.81716 26.8527C9 26.0355 9 24.7204 9 22.09V15.5801H20.1598C22.7902 15.5801 24.1054 15.5801 24.9226 16.3972C25.2966 16.7713 25.4995 17.2498 25.6095 17.9109" stroke="#3A643B" stroke-width="0.7" stroke-linecap="round" stroke-linejoin="round"/>
<path d="M20.1598 15.5784V11.4976C20.1598 10.6705 19.4893 10 18.6623 10C18.4241 10 18.1894 10.0568 17.9775 10.1657L9.70893 14.4168C9.27364 14.6405 9 15.0889 9 15.5784" stroke="#3A643B" stroke-width="0.7" stroke-linecap="round" stroke-linejoin="round"/>
<path d="M25.1318 21.3793C25.1186 23.1603 25.8 23.5022 25.8 23.5022C25.8 23.5022 26.7051 22.5478 26.7065 21.2033C26.708 19.8588 26.0524 18.8202 26.0524 18.8202C26.0611 18.6435 25.145 19.5983 25.1318 21.3793Z" fill="#B0C1B1" stroke="#3A643B" stroke-width="0.7"/>
<path d="M23.2289 25.2687C24.5119 26.5048 25.2941 26.1907 25.2941 26.1907C25.2941 26.1907 25.3103 24.8042 24.3351 23.8779C23.3599 22.9516 22.092 22.7656 22.092 22.7656C21.9705 22.637 21.9459 24.0326 23.2289 25.2687Z" stroke="#3A643B" stroke-width="0.7"/>
<path d="M26.8735 24.4988C25.3346 25.3962 25.4181 26.2224 25.4181 26.2224C25.4181 26.2224 26.7405 26.6001 27.8976 25.9145C29.0546 25.2288 29.5844 24.0714 29.5844 24.0714C29.7412 23.9894 28.4124 23.6013 26.8735 24.4988Z" fill="#B0C1B1" stroke="#3A643B" stroke-width="0.7"/>
</svg>
